<?xml version="1.0" encoding="UTF-8" standalone="no"?>
<!-- Created with Inkscape (http://www.inkscape.org/) -->

<svg version="1.1" xmlns="http://www.w3.org/2000/svg" xmlns:xlink="http://www.w3.org/1999/xlink" width="1085.2924" height="529" viewBox="0,0,1085.2924,529"><g transform="translate(204.13355,80.62214)"><g data-paper-data="{&quot;isPaintingLayer&quot;:true}" fill-rule="nonzero" stroke-linecap="round" stroke-linejoin="round" stroke-miterlimit="10" stroke-dasharray="" stroke-dashoffset="0" style="mix-blend-mode: normal"><path d="M-203.83355,447.20212v-518.54211h1084.6924v518.54211z" fill="#dbdbdb" stroke="#d3d3d3" stroke-width="0.6"/><path d="M856.08098,448.07786l-1055.68511,-0.00002M856.08098,427.7548l-1055.6851,-0.00004M856.08092,407.43167l-1055.68504,0.00004M856.08092,387.10862l-1055.68503,0.00002M856.08092,366.78553l-1055.68504,0.00002M856.08092,346.46251l-1055.68504,0.00002M856.08093,326.13935l-1055.68505,0.00001M856.08094,305.81622l-1055.68505,0.00002M856.08094,285.49316h-1055.68506M856.08095,265.17008h-1055.68508M856.08094,244.84706h-1055.68506M856.08095,224.52403h-1055.68508M856.08094,204.20095h-1055.68506M856.08094,183.87786h-1055.68506M856.08094,163.55471h-1055.68506M856.08094,143.23165h-1055.68506M856.08095,122.90862h-1055.68508M856.08094,102.58553h-1055.68506M856.08095,82.26238h-1055.68508M856.08094,61.93939h-1055.68507M856.08095,41.61633h-1055.68508M856.08094,21.29319h-1055.68507M856.08094,0.97011h-1055.68507M856.08095,-19.35292h-1055.68508M856.08094,-39.67599h-1055.68507M856.08095,-59.9991h-1055.68508M856.08094,-80.32213h-1055.68507M-199.60412,-80.32212v528.39991M-179.30248,-80.32212v528.39991M-159.00085,-80.32212v528.39991M-138.69922,-80.32212v528.39991M-118.39758,-80.32212l0.00001,528.39991M-118.39758,-80.32212l0.00001,528.39991M-98.09594,-80.32212v528.39991M-77.79431,-80.32212l0.00001,528.39991M-57.49267,-80.32212l-0.00001,528.39991M-37.19104,-80.32212l0.00001,528.39991M-16.8894,-80.32212v528.39991M3.41224,-80.32212v528.39991M23.71387,-80.32212v528.39991M44.01552,-80.32212l-0.00001,528.39991M64.31714,-80.32212l0.00001,528.39991M84.61879,-80.32212l-0.00001,528.39991M104.92041,-80.32212l0.00001,528.39991M125.22206,-80.32212v528.39991M145.52369,-80.32212v528.39991M165.82533,-80.32212v528.39991M186.12697,-80.32212l-0.00001,528.39991M206.4286,-80.32212v528.39991M226.73024,-80.32212v528.39991M247.03187,-80.32212v528.39991M267.33351,-80.32212v528.3999M287.63514,-80.32212v528.39991M307.93678,-80.32212v528.39991M328.23841,-80.32212v528.39991M348.54005,-80.32212v528.39991M368.84169,-80.32212l-0.00001,528.39991M389.14332,-80.32212l0.00001,528.39991M409.44496,-80.32212l-0.00001,528.3999M429.74659,-80.32212l0.00001,528.39991M450.04823,-80.32212v528.39991M470.34987,-80.32212v528.39991M490.6515,-80.32212v528.39991M510.95314,-80.32212l-0.00001,528.39991M531.25477,-80.32212v528.39991M551.55641,-80.32212v528.39991M571.85804,-80.32212v528.39991M592.15968,-80.32212v528.39991M612.46131,-80.32212v528.39991M632.76295,-80.32212v528.39991M653.06459,-80.32212v528.39991M673.36622,-80.32212v528.39991M693.66786,-80.32212v528.39991M713.96949,-80.32211v528.39989M734.27113,-80.32211l-0.00002,528.39989M754.57276,-80.32209l-0.00001,528.39988M774.8744,-80.32209l-0.00003,528.39988M795.17604,-80.32209l-0.00002,528.39988M815.47767,-80.32209l-0.00004,528.39988M835.77932,-80.32207l0.00003,528.39994M856.08094,-80.32207l0.00004,528.39993" fill="#635f5f" stroke="#d3d3d3" stroke-width="0.6"/><path d="M3.1665,-2.47014l13.99904,2.64809l6.65737,12.59314l-5.69743,13.05531l-13.76194,3.68656l-11.46345,-8.45824l-0.53272,-14.23381z" fill="#a7a7af" stroke="#6b6b6e" stroke-width="1.58803"/><path d="M662.9091,154.70389l-4.20798,17.22659l-12.81468,-12.25751z" fill="#e7896d" stroke="#926558" stroke-width="2"/><path d="M-101.57088,-59.19009l31.65873,-6.66625l28.53696,15.24327l12.06243,30.02029l-10.05624,30.75049l-27.46948,17.09219l-32.02944,-4.56373l-21.60248,-24.08424l-1.06747,-32.33546z" fill="#a7a7af" stroke="#6b6b6e" stroke-width="2.03909"/><path d="M687.3837,90.9316l26.74067,20.70137l0.48784,33.81414l-26.13237,21.46416l-33.07434,-7.04874l-15.11068,-30.25382l14.23164,-30.67715z" fill="#a7a7af" stroke="#767373" stroke-width="2.05929"/><path d="M163.80969,178.06672l16.25148,6.5191l-1.17805,17.4706l-16.97956,4.27831l-9.31589,-14.82645z" fill="#9673e8" stroke="#6f5b9f" stroke-width="2"/><path d="M90.79524,178.63536l18.95209,1.20982l4.70591,18.39836l-16.04368,10.161l-14.62145,-12.11852z" fill="#9673e8" stroke="#6f5b9f" stroke-width="2"/><path d="M155.62118,-59.28726l7.87069,14.64238l-11.49355,12.01022l-14.9741,-7.21966l2.23905,-16.47221z" fill="#9673e8" stroke="#6f5b9f" stroke-width="2"/><path d="M-176.6971,146.10861l12.74472,11.57321l-7.06844,15.69726l-17.11326,-1.87176l-3.50813,-16.85408z" fill="#9673e8" stroke="#a184e7" stroke-width="2"/><path d="M401.22545,207.05676l9.00693,10.29364l-10.29364,9.00694l-9.00693,-10.29364z" fill="#efc74b" stroke="#837549" stroke-width="2"/><path d="M371.30955,262.38498l13.51041,3.53844l-3.53844,13.5104l-13.5104,-3.53843z" fill="#efc74b" stroke="#837549" stroke-width="2"/><path d="M518.47648,284.74147l9.16778,6.59436l-6.59437,9.16778l-9.16777,-6.59437z" fill="#efc74b" stroke="#837549" stroke-width="2"/><path d="M540.35045,304.52459l10.29364,7.72023l-7.72023,10.29364l-10.29364,-7.72023z" fill="#efc74b" stroke="#837549" stroke-width="2"/><path d="M554.34335,333.1538l6.43353,10.93699l-10.937,6.43353l-6.43352,-10.93699z" fill="#efc74b" stroke="#837549" stroke-width="2"/><path d="M599.21718,323.66436l7.23772,9.48945l-9.48945,7.23772l-7.23772,-9.48945z" fill="#efc74b" stroke="#837549" stroke-width="2"/><path d="M613.69265,294.07009l10.93699,7.72023l-7.72023,10.93699l-10.93699,-7.72023z" fill="#efc74b" stroke="#837549" stroke-width="2"/><path d="M640.23092,334.11879l13.02789,2.73425l-2.73425,13.02789l-13.02789,-2.73425z" fill="#ffc665" stroke="#837549" stroke-width="2"/><path d="M614.65766,352.77614l9.16777,9.16778l-9.16777,9.16777l-9.16778,-9.16777z" fill="#efc74b" stroke="#837549" stroke-width="2"/><path d="M645.86025,249.3572l14.47544,3.86011l-3.86012,14.47544l-14.47543,-3.86012z" fill="#efc74b" stroke="#837549" stroke-width="2"/><path d="M619.80445,230.37831l13.99291,2.73425l-2.73424,13.99291l-13.99292,-2.73424z" fill="#efc74b" stroke="#837549" stroke-width="2"/><path d="M607.09825,258.36404l9.65029,9.00693l-9.00694,9.65029l-9.65029,-9.00694z" fill="#efc74b" stroke="#837549" stroke-width="2"/><path d="M584.90261,235.52513l8.36359,9.00693l-9.00694,8.36359l-8.36358,-9.00694z" fill="#efc74b" stroke="#837549" stroke-width="2"/><path d="M440.28668,391.65117l4.09427,11.82789l-11.8279,4.09427l-4.09427,-11.82789z" fill="#efc74b" stroke="#837549" stroke-width="2"/><path d="M102.38822,379.15359l12.2237,7.72023l-7.72023,12.2237l-12.2237,-7.72023z" fill="#efc74b" stroke="#837549" stroke-width="2"/><path d="M-43.97446,397.81077l13.02789,3.3776l-3.3776,13.02789l-13.02789,-3.3776z" fill="#efc74b" stroke="#837549" stroke-width="2"/><path d="M-115.06492,293.2659l9.48945,9.48945l-9.48945,9.48945l-9.48945,-9.48945z" fill="#efc74b" stroke="#837549" stroke-width="2"/><path d="M-33.28393,237.31987l-0.45492,12.28281l-12.28281,-0.45492l0.45492,-12.28281z" fill="#efc74b" stroke="#837549" stroke-width="2"/><path d="M37.91089,115.25995l8.97509,12.78752l-15.56186,1.3789z" fill="#e7896d" stroke="#926558" stroke-width="2"/><path d="M286.62829,161.05704l6.77056,15.06991l-16.43621,-1.67148z" fill="#e7896d" stroke="#c8795f" stroke-width="2"/><path d="M377.42142,16.78518l0.77646,19.17397l-16.99337,-8.91456z" fill="#e7896d" stroke="#926558" stroke-width="2"/><path d="M438.05738,-44.81577l10.08351,14.12221l-17.27195,1.67148z" fill="#e7896d" stroke="#926558" stroke-width="2"/><path d="M673.9265,297.28686l3.86011,-0.88461l3.65907,3.65906l-2.76016,4.78075h-4.11567l-0.82967,3.09638l-5.3964,1.44596l-2.85451,-4.94416l2.97016,-2.97016l-3.13777,-3.13778l2.3281,-4.03239h4.66836z" fill="#c46748" stroke="#926558" stroke-width="2"/><path d="M470.14071,153.15983l-3.83977,18.36651l-13.98598,-12.50859z" fill="#8bfe6a" stroke="#72bb5d" stroke-width="2"/><path d="M541.63717,373.92641l12.33314,11.05416l-15.73976,5.15373z" fill="#8bfe6a" stroke="#72bb5d" stroke-width="2"/><path d="M614.17942,-49.50652c0,-6.02987 4.88818,-10.91805 10.91805,-10.91805c6.02987,0 10.91805,4.88818 10.91805,10.91805c0,6.02987 -4.88818,10.91806 -10.91805,10.91806c-6.02987,0 -10.91805,-4.88818 -10.91805,-10.91806z" fill="#e8ebf7" stroke="#808185" stroke-width="2"/><path d="M628.65057,-19.56421c0,-5.77385 4.68062,-10.45448 10.45448,-10.45448c5.77385,0 10.45448,4.68063 10.45448,10.45448c0,5.77385 -4.68063,10.45448 -10.45448,10.45448c-5.77385,0 -10.45448,-4.68063 -10.45448,-10.45448z" fill="#e8ebf7" stroke="#808185" stroke-width="2"/><path d="M648.91619,-40.63399c0,-5.77385 4.68062,-10.45448 10.45448,-10.45448c5.77385,0 10.45448,4.68063 10.45448,10.45448c0,5.77385 -4.68063,10.45448 -10.45448,10.45448c-5.77385,0 -10.45448,-4.68062 -10.45448,-10.45448z" fill="#e8ebf7" stroke="#808185" stroke-width="2"/><path d="M646.82529,25.95301c0,-6.39565 5.18469,-11.58034 11.58034,-11.58034c6.39565,0 11.58035,5.18469 11.58035,11.58035c0,6.39565 -5.1847,11.58034 -11.58035,11.58034c-6.39565,0 -11.58034,-5.18469 -11.58034,-11.58034z" fill="#e8ebf7" stroke="#808185" stroke-width="2"/><path d="M617.55276,28.52642c0,-6.57331 5.32871,-11.90202 11.90202,-11.90202c6.57331,0 11.90202,5.32871 11.90202,11.90202c0,6.5733 -5.32871,11.90202 -11.90202,11.90202c-6.57331,0 -11.90202,-5.32872 -11.90202,-11.90202z" fill="#e8ebf7" stroke="#808185" stroke-width="2"/><path d="M638.30086,54.01927c0,-5.81827 4.71663,-10.5349 10.5349,-10.5349c5.81826,0 10.5349,4.71663 10.5349,10.5349c0,5.81827 -4.71664,10.53489 -10.5349,10.53489c-5.81826,0 -10.5349,-4.71663 -10.5349,-10.53489z" fill="#e8ebf7" stroke="#808185" stroke-width="2"/><path d="M662.1049,60.4528c0,-5.10764 4.14055,-9.24819 9.24819,-9.24819c5.10763,0 9.24819,4.14056 9.24819,9.24819c0,5.10764 -4.14056,9.24819 -9.24819,9.24819c-5.10763,0 -9.24819,-4.14056 -9.24819,-9.24819z" fill="#e8ebf7" stroke="#808185" stroke-width="2"/><path d="M747.01572,2.12676c0,-9.29606 7.53594,-16.832 16.832,-16.832c9.29606,0 16.832,7.53594 16.832,16.832c0,9.29606 -7.53594,16.832 -16.832,16.832c-9.29606,0 -16.832,-7.53594 -16.832,-16.832z" fill="#e8ebf7" stroke="#808185" stroke-width="2"/><path d="M785.22896,32.83375c0,-6.65798 5.39736,-12.05535 12.05535,-12.05535c6.65799,0 12.05535,5.39736 12.05535,12.05535c0,6.65799 -5.39736,12.05535 -12.05535,12.05535c-6.65799,0 -12.05535,-5.39737 -12.05535,-12.05535z" fill="#e8ebf7" stroke="#808185" stroke-width="2"/><path d="M782.72686,-30.28619c0,-5.96706 4.83726,-10.80432 10.80433,-10.80432c5.96707,0 10.80432,4.83726 10.80432,10.80432c0,5.96706 -4.83726,10.80432 -10.80432,10.80432c-5.96707,0 -10.80433,-4.83726 -10.80433,-10.80432z" fill="#e8ebf7" stroke="#808185" stroke-width="2"/><path d="M739.50959,-37.45119c0,-9.92417 8.04512,-17.9693 17.96929,-17.9693c9.92417,0 17.9693,8.04513 17.9693,17.9693c0,9.92417 -8.04513,17.9693 -17.9693,17.9693c-9.92417,0 -17.96929,-8.04512 -17.96929,-17.96929z" fill="#e8ebf7" stroke="#808185" stroke-width="2"/><path d="M675.75602,0.36327l1.92943,39.84116l-14.66814,6.34629l-2.45069,-50.60471z" fill="#a7a7af" stroke="#767373" stroke-width="2"/><path d="M749.5178,33.74359c0,-6.40674 5.19369,-11.60043 11.60043,-11.60043c6.40674,0 11.60043,5.19369 11.60043,11.60043c0,6.40674 -5.19369,11.60043 -11.60043,11.60043c-6.40674,0 -11.60043,-5.19369 -11.60043,-11.60043z" fill="#e8ebf7" stroke="#808185" stroke-width="2"/><path d="M668.76967,17.2528c0,-20.91612 16.95587,-37.87199 37.87199,-37.87199c20.91612,0 37.872,16.95587 37.872,37.872c0,20.91613 -16.95587,37.872 -37.872,37.872c-20.91612,0 -37.87199,-16.95587 -37.87199,-37.872z" fill="#e8ebf7" stroke="#808185" stroke-width="2"/><g stroke-width="2"><path d="M688.4002,416.37436l2.70073,-14.42041l20.56865,3.85221l-2.70074,14.42041z" fill="#a7a7af" stroke="#767373"/><path d="M702.66595,411.58308c1.68648,-9.00485 10.35351,-14.93756 19.35836,-13.25108c9.00485,1.68648 14.93756,10.35352 13.25108,19.35836c-1.68648,9.00485 -10.35351,14.93756 -19.35836,13.25108c-9.00485,-1.68648 -14.93756,-10.35351 -13.25108,-19.35836z" fill="#3ca4cb" stroke="#436875"/></g><path d="M594.89788,390.79877c0,-3.73726 3.02966,-6.76692 6.76692,-6.76692c3.73726,0 6.76692,3.02965 6.76692,6.76692c0,3.73726 -3.02966,6.76692 -6.76692,6.76692c-3.73726,0 -6.76692,-3.02966 -6.76692,-6.76692z" fill="#3ca4cb" stroke="#436875" stroke-width="2"/></g></g></svg>
